<svg width="120" height="120" viewBox="0 0 120 120" fill="none" xmlns="http://www.w3.org/2000/svg">
<path d="M85 107.533C79.4667 107.533 75 101.933 75 95C75 88.1333 79.4667 82.5333 85 82.5333C90.5334 82.5333 95 88.1333 95 95C95 101.933 90.5334 107.533 85 107.533ZM60 55C51.7334 55 45.0001 49.4 45.0001 42.5333C45.0001 35.6 51.7334 30 60 30C68.2667 30 75 35.6 75 42.5333C75 49.4 68.2667 55 60 55ZM35.0001 107.533C29.4667 107.533 25.0001 101.933 25.0001 95C25.0001 88.1333 29.4667 82.5333 35.0001 82.5333C40.5334 82.5333 45.0001 88.1333 45.0001 95C45.0001 101.933 40.5334 107.533 35.0001 107.533ZM60 35C62.7334 35 65 37.2667 65 40C65 42.7333 62.7334 45 60 45C57.2667 45 55 42.7333 55 40C55 37.2667 57.2667 35 60 35ZM105 60C102.867 60 100.8 60.4667 98.9333 61.3333C95.7334 57.2667 91.4 53.8 86.2 51.1333C90 45.8 92.2667 39.3333 92.2667 32.3333V31.9333C99.5333 30.4 105 23.9333 105 16.1333C105 7.26667 97.7334 0 88.8667 0C84.2667 0 80 1.93333 77.2 5C72.0575 1.73457 66.0917 0.000492732 60 0.000492732C53.9084 0.000492732 47.9426 1.73457 42.8001 5C40.0001 1.93333 35.7334 0 31.1334 0C22.2667 0 15.0001 7.26667 15.0001 16.1333C15.0001 23.8667 20.4667 30.3333 27.6667 31.9333V32.3333C27.6667 39.3333 30.0001 45.8667 33.7334 51.1333C28.6001 53.8 24.2667 57.2667 21.0667 61.3333C18.7885 60.3071 16.2892 59.8689 13.7977 60.0589C11.3062 60.2489 8.90223 61.0611 6.80599 62.421C4.70974 63.7809 2.98824 65.6451 1.79919 67.8427C0.610139 70.0404 -0.00845116 72.5013 8.72054e-05 75C8.72054e-05 83.3333 6.66675 90 15.0001 90H15.4001C15.1334 91.6 15.0001 93.3333 15.0001 95C15.0001 108.8 23.9334 120 35.0001 120C41.7334 120 47.6667 115.8 51.3334 109.4C54.1334 109.8 57 110 60 110C63 110 65.8667 109.8 68.6667 109.4C72.3334 115.8 78.2667 120 85 120C96.0667 120 105 108.8 105 95C105 93.3333 104.867 91.6 104.6 90H105C113.333 90 120 83.3333 120 75C120 66.6667 113.333 60 105 60Z" fill="#63516B"/>
</svg>
