<svg width="120" height="96" viewBox="0 0 120 96" fill="none" xmlns="http://www.w3.org/2000/svg">
<path d="M78.7283 0L73.7078 3.1124C65.1861 6.82102 52.4036 4.65766 47.0776 3.1124L41.2795 0L41.1799 0.0475348L37.1185 1.98515C35.1681 2.32468 33.2436 2.71175 31.4232 3.15088C26.8981 4.24871 22.9192 5.68154 20.2666 7.33621C18.1523 8.67171 16.904 10.0299 16.4879 11.5238L15.2916 14.9871C12.665 19.9216 12.2489 22.7737 12.1709 25.4674C11.1306 27.6177 11.1412 37.8038 11.1412 37.8038C11.1412 37.8038 7.47431 47.356 7.11023 52.5622L4.10896 56.116C2.78265 59.0134 1.7164 61.6617 2.18451 64.2196L1.40433 68.045L0 73.2738C4.6811 75.1752 8.58201 77.0087 17.008 77.0766L19.1665 72.5495L21.2288 68.9278L21.3328 68.8599C23.1532 67.8639 24.0895 66.551 24.7396 64.8534C24.7396 63.4726 24.7656 62.1144 24.7916 60.7789L26.7266 57.112C26.8827 53.2413 27.7669 45.9752 28.183 42.5799C28.7291 39.3204 31.0331 33.8425 31.8133 31.4658L30.0189 46.9712L29.6288 50.6382C29.3167 54.0562 29.1086 57.7684 29.0566 61.6165L29.0306 65.3513C29.0306 68.5656 29.1346 71.8478 29.3427 75.1526L29.7588 80.6304C30.1229 84.1616 30.591 87.6474 31.1891 91.0202C41.9557 94.0986 50.0436 95.751 57.9234 96H62.0844C69.9642 95.751 78.0521 94.0986 88.8187 91.0202C89.4168 87.6474 89.8849 84.1616 90.249 80.6304L90.6651 75.1526C90.8731 71.8478 90.9772 68.5656 90.9772 65.3513L90.9512 61.6165C90.8992 57.7684 90.6911 54.0562 90.379 50.6382L89.9889 46.9712C89.4428 42.4893 89.0787 34.4084 88.1945 31.4658L93.6298 42.5573L94.1759 46.1563C94.592 49.5517 94.9301 53.2186 95.0861 57.0893L95.2162 60.7789C95.2422 62.1144 95.2682 63.4726 95.2682 64.8534C95.9183 66.551 96.8546 67.8639 98.675 68.8599L100.833 72.5495L102.992 77.0766C111.392 77.0087 115.319 75.1752 120 73.2738L118.596 68.045L117.815 64.2196C118.258 61.6617 117.217 59.0134 115.865 56.1386L114.669 52.5396C114.305 47.3334 112.978 44.7076 111.704 41.4028L110.664 37.8038C110.456 32.8239 109.546 31.1942 108.531 29.0438L107.803 25.4674C107.751 22.7737 107.335 19.9216 104.682 14.9871L103.486 11.5238C103.07 10.0072 101.848 8.67171 99.7412 7.33621C97.0886 5.68154 93.1097 4.24871 88.5846 3.15088C86.7642 2.71175 84.8397 2.32468 82.8893 1.98515L78.7283 0Z" fill="#63516B"/>
</svg>
