<svg width="90" height="96" viewBox="0 0 90 103" fill="none" xmlns="http://www.w3.org/2000/svg">
<path d="M90 72.4219V4.82812C90 2.15254 87.8504 0 85.1786 0H19.2857C8.63839 0 0 8.65039 0 19.3125V83.6875C0 94.3496 8.63839 103 19.2857 103H85.1786C87.8504 103 90 100.847 90 98.1719V94.9531C90 93.4443 89.2969 92.0764 88.2121 91.1912C87.3683 88.0932 87.3683 79.2617 88.2121 76.1637C89.2969 75.2986 90 73.9307 90 72.4219ZM25.7143 26.957C25.7143 26.2932 26.2567 25.75 26.9196 25.75H69.5089C70.1719 25.75 70.7143 26.2932 70.7143 26.957V30.9805C70.7143 31.6443 70.1719 32.1875 69.5089 32.1875H26.9196C26.2567 32.1875 25.7143 31.6443 25.7143 30.9805V26.957ZM25.7143 39.832C25.7143 39.1682 26.2567 38.625 26.9196 38.625H69.5089C70.1719 38.625 70.7143 39.1682 70.7143 39.832V43.8555C70.7143 44.5193 70.1719 45.0625 69.5089 45.0625H26.9196C26.2567 45.0625 25.7143 44.5193 25.7143 43.8555V39.832ZM76.6205 90.125H19.2857C15.7299 90.125 12.8571 87.2482 12.8571 83.6875C12.8571 80.1469 15.75 77.25 19.2857 77.25H76.6205C76.2388 80.69 76.2388 86.685 76.6205 90.125Z" fill="#63516B"/>
</svg>
