<svg width="120" height="96" viewBox="0 0 120 96" fill="none" xmlns="http://www.w3.org/2000/svg">
<path d="M118.346 18.0938L81.8442 0C78.076 5.2125 69.7333 8.85 60.0033 8.85C50.2734 8.85 41.9307 5.2125 38.1625 0L1.66107 18.0938C0.18002 18.8438 -0.4199 20.6437 0.311253 22.125L11.0348 43.5938C11.7847 45.075 13.5845 45.675 15.0655 44.9437L25.6766 39.75C27.6639 38.775 29.9886 40.2188 29.9886 42.45V90C29.9886 93.3187 32.6695 96 35.9878 96H83.9814C87.2997 96 89.9806 93.3187 89.9806 90V42.4313C89.9806 40.2188 92.3053 38.7562 94.2925 39.7312L104.904 44.925C106.385 45.675 108.184 45.075 108.934 43.575L119.677 22.125C120.427 20.6437 119.827 18.825 118.346 18.0938Z" fill="#63516B"/>
</svg>
