<svg width="34" height="34" viewBox="0 0 34 34" fill="none" xmlns="http://www.w3.org/2000/svg">
<path d="M0.725555 16.8522C0.724758 19.7184 1.47701 22.5169 2.9074 24.9836L0.588758 33.4116L9.25238 31.1501C11.6486 32.4488 14.3334 33.1293 17.0618 33.1295H17.0689C26.0756 33.1295 33.4073 25.8332 33.4111 16.8651C33.4128 12.5194 31.7144 8.433 28.6287 5.35862C25.5434 2.2845 21.4402 0.590627 17.0683 0.588644C8.06052 0.588644 0.729273 7.88455 0.725555 16.8522Z" fill="url(#paint0_linear_628_248)"/>
<path d="M0.142109 16.847C0.14118 19.8162 0.92039 22.7149 2.40178 25.2699L0 34L8.97427 31.6575C11.447 32.9996 14.231 33.7073 17.0639 33.7083H17.0712C26.401 33.7083 33.996 26.1496 34 16.8604C34.0016 12.3586 32.2421 8.12532 29.0461 4.9408C25.8497 1.75668 21.5997 0.00185108 17.0712 0C7.73978 0 0.145828 7.5577 0.142109 16.847ZM5.48648 24.8299L5.1514 24.3003C3.74279 22.0706 2.9993 19.4939 3.00037 16.848C3.00342 9.12702 9.3152 2.84538 17.0765 2.84538C20.8351 2.84696 24.3674 4.30562 27.0242 6.95213C29.6808 9.59891 31.1427 13.1173 31.1417 16.8594C31.1383 24.5804 24.8264 30.8628 17.0712 30.8628H17.0656C14.5404 30.8615 12.0639 30.1864 9.90409 28.9106L9.39011 28.6071L4.06459 29.9972L5.48648 24.8299Z" fill="url(#paint1_linear_628_248)"/>
<path d="M12.84 9.80386C12.5232 9.10269 12.1897 9.08854 11.8883 9.07625C11.6415 9.06567 11.3595 9.06646 11.0776 9.06646C10.7955 9.06646 10.3372 9.17211 9.94978 9.59323C9.56197 10.0147 8.46919 11.0334 8.46919 13.1051C8.46919 15.177 9.98498 17.1792 10.1963 17.4605C10.4079 17.7412 13.1225 22.1287 17.4219 23.8167C20.9951 25.2194 21.7223 24.9404 22.4978 24.8701C23.2734 24.8 25.0005 23.8517 25.3528 22.8684C25.7055 21.8852 25.7055 21.0424 25.5997 20.8663C25.494 20.6909 25.2119 20.5855 24.7889 20.375C24.3658 20.1644 22.2862 19.1456 21.8985 19.0051C21.5107 18.8646 21.2288 18.7946 20.9467 19.2162C20.6646 19.6372 19.8545 20.5855 19.6076 20.8663C19.361 21.1478 19.1141 21.1828 18.6912 20.9722C18.268 20.7609 16.9057 20.3168 15.2895 18.8824C14.032 17.7661 13.1831 16.3878 12.9363 15.9661C12.6896 15.5451 12.9099 15.3169 13.122 15.1071C13.3121 14.9184 13.5451 14.6153 13.7569 14.3695C13.9678 14.1236 14.0381 13.9482 14.1792 13.6673C14.3204 13.3862 14.2497 13.1403 14.1441 12.9297C14.0381 12.719 13.2162 10.6364 12.84 9.80386Z" fill="white"/>
<defs>
<linearGradient id="paint0_linear_628_248" x1="1700" y1="3400" x2="1700" y2="0" gradientUnits="userSpaceOnUse">
<stop stop-color="#1FAF38"/>
<stop offset="1" stop-color="#60D669"/>
</linearGradient>
<linearGradient id="paint1_linear_628_248" x1="1700" y1="3400" x2="1700" y2="0" gradientUnits="userSpaceOnUse">
<stop stop-color="#F9F9F9"/>
<stop offset="1" stop-color="white"/>
</linearGradient>
</defs>
</svg>
